<svg width="65" height="65" viewBox="0 0 65 65" fill="none" xmlns="http://www.w3.org/2000/svg">
<path d="M51.4583 21.6667C49.2014 21.6667 47.283 20.8767 45.7031 19.2969C44.1233 17.717 43.3333 15.7986 43.3333 13.5417C43.3333 11.2847 44.1233 9.36631 45.7031 7.78645C47.283 6.20659 49.2014 5.41666 51.4583 5.41666C53.7153 5.41666 55.6337 6.20659 57.2135 7.78645C58.7934 9.36631 59.5833 11.2847 59.5833 13.5417C59.5833 15.7986 58.7934 17.717 57.2135 19.2969C55.6337 20.8767 53.7153 21.6667 51.4583 21.6667ZM10.8333 54.1667C9.34375 54.1667 8.06858 53.6363 7.00781 52.5755C5.94705 51.5147 5.41667 50.2396 5.41667 48.75V16.25C5.41667 14.7604 5.94705 13.4852 7.00781 12.4245C8.06858 11.3637 9.34375 10.8333 10.8333 10.8333H38.1875C38.007 11.7361 37.9167 12.6389 37.9167 13.5417C37.9167 14.4444 38.007 15.3472 38.1875 16.25C38.5035 17.6944 39.0226 19.0373 39.7448 20.2786C40.467 21.52 41.3472 22.6146 42.3854 23.5625L32.5 29.7917L10.8333 16.25V21.6667L32.5 35.2083L46.7865 26.2708C47.5538 26.5417 48.3212 26.7448 49.0885 26.8802C49.8559 27.0156 50.6458 27.0833 51.4583 27.0833C52.9028 27.0833 54.3247 26.8576 55.724 26.4062C57.1233 25.9549 58.4097 25.2778 59.5833 24.375V48.75C59.5833 50.2396 59.053 51.5147 57.9922 52.5755C56.9314 53.6363 55.6563 54.1667 54.1667 54.1667H10.8333Z" fill="#F2F0EF"/>
</svg>
