<svg width="65" height="65" viewBox="0 0 65 65" fill="none" xmlns="http://www.w3.org/2000/svg">
<path d="M43.3333 21.6667C47.6431 21.6667 51.7764 23.3787 54.8238 26.4262C57.8713 29.4737 59.5833 33.6069 59.5833 37.9167V56.875H48.75V37.9167C48.75 36.4801 48.1793 35.1023 47.1635 34.0865C46.1477 33.0707 44.7699 32.5 43.3333 32.5C41.8967 32.5 40.519 33.0707 39.5032 34.0865C38.4874 35.1023 37.9167 36.4801 37.9167 37.9167V56.875H27.0833V37.9167C27.0833 33.6069 28.7954 29.4737 31.8429 26.4262C34.8903 23.3787 39.0236 21.6667 43.3333 21.6667Z" stroke="#F2F0EF" stroke-width="4" stroke-linecap="round" stroke-linejoin="round"/>
<path d="M16.25 24.375H5.41667V56.875H16.25V24.375Z" stroke="#F2F0EF" stroke-width="4" stroke-linecap="round" stroke-linejoin="round"/>
<path d="M10.8333 16.25C13.8249 16.25 16.25 13.8249 16.25 10.8334C16.25 7.84181 13.8249 5.41669 10.8333 5.41669C7.84179 5.41669 5.41667 7.84181 5.41667 10.8334C5.41667 13.8249 7.84179 16.25 10.8333 16.25Z" stroke="#F2F0EF" stroke-width="4" stroke-linecap="round" stroke-linejoin="round"/>
</svg>
